<svg width="24" height="25" viewBox="0 0 24 25" fill="none" xmlns="http://www.w3.org/2000/svg">
<g clip-path="url(#clip0)">
<path d="M18.031 17.326L22.314 21.608L20.899 23.023L16.617 18.74C15.0237 20.0172 13.042 20.7119 11 20.709C6.032 20.709 2 16.677 2 11.709C2 6.74098 6.032 2.70898 11 2.70898C15.968 2.70898 20 6.74098 20 11.709C20.0029 13.751 19.3082 15.7327 18.031 17.326ZM16.025 16.584C17.2941 15.2789 18.0029 13.5294 18 11.709C18 7.84098 14.867 4.70898 11 4.70898C7.132 4.70898 4 7.84098 4 11.709C4 15.576 7.132 18.709 11 18.709C12.8204 18.7119 14.5699 18.0031 15.875 16.734L16.025 16.584Z" fill="white"/>
</g>
<defs>
<clipPath id="clip0">
<rect width="24" height="24" fill="white" transform="translate(0 0.708984)"/>
</clipPath>
</defs>
</svg>
